<svg version="1.1" preserveAspectRatio="none" xmlns="http://www.w3.org/2000/svg" width="500" height="500" viewBox="0 0 500 500"><rect width="100%" height="100%" fill="#FFFFFF" fill-opacity="1"/><svg viewBox="75.6327 94.5614 265.0735 140" width="333" height="175.87574766998586" x="83.5px" y="162.0621px" xmlns="http://www.w3.org/2000/svg" xmlns:xlink="http://www.w3.org/1999/xlink" preserveAspectRatio="none"><defs></defs><style>.companyName {fill:#0C0C0C;fill-opacity:1;}.icon3 {fill:#0C0C0C;fill-opacity:1;}.icon3-str {stroke:#0C0C0C;stroke-opacity:1;}</style><g opacity="1" transform="rotate(0 106.6804 104.5614)">
<svg width="234.0258" height="120" x="106.6804" y="104.5614" version="1.1" preserveAspectRatio="none" viewBox="2.4 -27.68 166.07999999999998 85.16">
  <g transform="matrix(1 0 0 1 0 0)" class="companyName"><path id="id-D6z1nYkh18" d="M9.92-0.92L9.92-0.92Q9.80-0.72 9.48-0.58Q9.16-0.44 8.82-0.38Q8.48-0.32 8.18-0.28Q7.88-0.24 7.84-0.20L7.84-0.20Q7.32-0.16 6.64-0.12Q5.96-0.08 5.04 0L5.04 0Q4.92-0.04 4.72-0.04L4.72-0.04Q4.56-0.04 4.24 0.04Q3.92 0.12 3.72 0.12L3.72 0.12Q2.40 0.12 2.40-1.40L2.40-1.40Q2.40-2.56 3.12-3L3.12-3L4.80-3.56Q4.80-4.64 5.04-6.64L5.04-6.64Q5-6.84 4.98-7.10Q4.96-7.36 4.96-7.68L4.96-7.68Q4.96-9.08 5.04-9.84Q5.12-10.60 5.12-10.68L5.12-10.68Q5.12-11.04 5.10-11.50Q5.08-11.96 5.02-12.74Q4.96-13.52 4.86-14.68Q4.76-15.84 4.64-17.52L4.64-17.52L3.24-17.72Q2.64-18.68 2.64-19.44L2.64-19.44Q2.64-19.88 2.76-20.18Q2.88-20.48 3.22-20.68Q3.56-20.88 4.18-20.96Q4.80-21.04 5.80-21.04L5.80-21.04Q6.32-21.04 6.76-20.96Q7.20-20.88 7.52-20.80L7.52-20.80Q8.48-20.80 9.08-20.74Q9.68-20.68 9.98-20.50Q10.28-20.32 10.38-20.02Q10.48-19.72 10.48-19.24L10.48-19.24Q10.48-18.24 9.60-17.40L9.60-17.40Q9.44-17.36 8.16-17.36L8.16-17.36Q8.20-16.76 8.24-16.32Q8.28-15.88 8.34-15.18Q8.40-14.48 8.44-13.34Q8.48-12.20 8.52-10.24L8.52-10.24Q8.52-9.32 8.50-8.66Q8.48-8 8.48-7.48L8.48-7.48Q8.48-6.44 8.52-6.32L8.52-6.32L8.36-3.68Q9.52-3.52 9.94-3.12Q10.36-2.72 10.36-1.92L10.36-1.92Q10.36-1.36 9.92-0.92Z M32.40-16.64L32.40-16.64Q31.84-16.40 31.16-16.40L31.16-16.40Q30.96-16.40 30.58-16.44Q30.20-16.48 29.76-16.54Q29.32-16.60 28.90-16.66Q28.48-16.72 28.28-16.72L28.28-16.72Q27-16.72 25.80-16.36L25.80-16.36Q26.04-14.84 26.20-13.40Q26.36-11.96 26.48-10.70Q26.60-9.44 26.64-8.42Q26.68-7.40 26.68-6.68L26.68-6.68Q26.68-4.88 26.66-3.58Q26.64-2.28 26.44-1.42Q26.24-0.56 25.80-0.16Q25.36 0.24 24.52 0.24L24.52 0.24Q23.72 0.24 23.34-0.18Q22.96-0.60 22.82-1.18Q22.68-1.76 22.70-2.40Q22.72-3.04 22.72-3.48L22.72-3.48Q22.72-4.24 22.84-4.86Q22.96-5.48 22.96-6.04L22.96-6.04Q22.96-6.32 22.80-8.06Q22.64-9.80 22.64-12.44L22.64-12.44Q22.64-13.32 22.46-14.18Q22.28-15.04 22.08-15.84L22.08-15.84L19.72-15.68Q18.28-15.56 17.72-15.24L17.72-15.24Q16.88-15.24 16.28-15.72Q15.68-16.20 15.68-16.96L15.68-16.96Q15.68-17.72 16.36-18.64L16.36-18.64Q16.56-18.68 18.16-18.94Q19.76-19.20 22.76-19.76L22.76-19.76L24.76-20Q25.72-20.12 26.60-20.12L26.60-20.12L27.20-20.12L31.92-19.80Q32.76-19.32 32.76-18L32.76-18Q32.76-17.28 32.40-16.64Z M42.36-26.40L42.36-26.40Q42.40-26.04 42.42-25.72Q42.44-25.40 42.44-25.08L42.44-25.08Q42.44-24.64 42.40-24.22Q42.36-23.80 42.28-23.48L42.28-23.48L41.92-21Q41.80-19.80 41.44-19.20Q41.08-18.60 40.24-18.60L40.24-18.60Q39.72-18.60 39.44-18.92Q39.16-19.24 39-19.88Q38.84-20.52 38.72-21.50Q38.60-22.48 38.36-23.80L38.36-23.80Q38.24-24.44 38.22-24.96Q38.20-25.48 38.20-25.88L38.20-25.88Q38.20-26.88 38.74-27.28Q39.28-27.68 40.16-27.68L40.16-27.68Q41.92-27.68 42.36-26.40Z M60.04-4.60L60.04-4.60Q59.92-3.36 59.22-2.34Q58.52-1.32 57.80-0.28L57.80-0.28Q57.36 0.08 56.54 0.34Q55.72 0.60 54.92 0.76Q54.12 0.92 53.54 1Q52.96 1.08 53.04 1.08L53.04 1.08Q52.64 1.08 52.02 0.94Q51.40 0.80 50.82 0.66Q50.24 0.52 49.86 0.38Q49.48 0.24 49.52 0.24L49.52 0.24Q49.16 0.20 48.60-0.02Q48.04-0.24 47.54-0.54Q47.04-0.84 46.66-1.18Q46.28-1.52 46.28-1.84L46.28-1.84Q46.28-2.16 46.44-2.50Q46.60-2.84 46.88-3.14Q47.16-3.44 47.46-3.62Q47.76-3.80 48.08-3.80L48.08-3.80L50.84-2.76Q51.60-2.52 52.34-2.42Q53.08-2.32 53.80-2.32L53.80-2.32Q54.48-2.32 55.02-2.58Q55.56-2.84 55.84-3.20L55.84-3.20L56.44-4.40Q56.36-5.12 55.86-5.52Q55.36-5.92 54.62-6.20Q53.88-6.48 53.04-6.72Q52.20-6.96 51.48-7.36L51.48-7.36L49.76-8.44Q48.92-9.52 48.88-11.76L48.88-11.76Q49.12-13.16 50.08-14L50.08-14Q50.12-14.04 50.60-14.38Q51.08-14.72 52.08-15.36L52.08-15.36Q52.24-15.36 53.10-15.44Q53.96-15.52 55.48-15.68L55.48-15.68Q56.16-15.68 58.80-14.72L58.80-14.72Q59.32-14.20 59.32-13.28L59.32-13.28Q59.32-12.56 58.98-12.06Q58.64-11.56 58-11.56L58-11.56Q57.32-11.56 56.50-11.90Q55.68-12.24 54.96-12.24L54.96-12.24Q53.96-12.24 53.14-12.06Q52.32-11.88 52.32-11.24L52.32-11.24Q52.32-10.32 53.12-10.12L53.12-10.12Q59.24-8.76 60.04-4.60Z M20.40 8.52L20.40 8.72Q20.08 9.52 19.84 9.94Q19.60 10.36 19.28 10.74Q18.96 11.12 18.42 11.66Q17.88 12.20 16.92 13.20L16.92 13.20Q16.12 14.04 15.62 14.58Q15.12 15.12 14.66 15.56Q14.20 16 13.68 16.50Q13.16 17 12.36 17.76L12.36 17.76Q12.36 18.32 12.32 19.12Q12.28 19.92 12.28 20.96L12.28 20.96Q12.28 21.32 12.32 21.82Q12.36 22.32 12.42 22.80Q12.48 23.28 12.52 23.70Q12.56 24.12 12.56 24.36L12.56 24.36L12.56 25.48Q12.56 26.96 12.72 27.88L12.72 27.88Q12.40 29.08 10.84 29.08L10.84 29.08Q10.16 29.08 9.78 28.68Q9.40 28.28 9.20 27.62Q9 26.96 8.94 26.10Q8.88 25.24 8.88 24.28L8.88 24.28Q8.88 23.96 8.90 23.72Q8.92 23.48 8.96 23.28L8.96 23.28Q8.88 21.56 8.82 20.40Q8.76 19.24 8.76 18.64L8.76 18.64L8.76 18.20Q8.16 17.56 7.24 16.52Q6.32 15.48 5.08 14.08L5.08 14.08Q4.88 13.68 4.44 13.08Q4 12.48 3.54 11.90Q3.08 11.32 2.74 10.82Q2.40 10.32 2.40 10.08L2.40 10.08Q2.40 9.40 2.98 8.76Q3.56 8.12 4.36 8.12L4.36 8.12Q4.72 8.12 4.94 8.22Q5.16 8.32 5.38 8.54Q5.60 8.76 5.86 9.14Q6.12 9.52 6.56 10.08L6.56 10.08Q7 10.64 7.30 11.08Q7.60 11.52 7.80 11.84L7.80 11.84Q7.92 11.96 8.30 12.36Q8.68 12.76 9.12 13.22Q9.56 13.68 9.94 14.08Q10.32 14.48 10.48 14.60L10.48 14.60Q10.92 14.20 11.60 13.64Q12.28 13.08 13.20 12.32L13.20 12.32Q13.36 12 14 11.08Q14.64 10.16 15.46 9.14Q16.28 8.12 17.08 7.26Q17.88 6.40 18.36 6.16L18.36 6.16Q18.64 6.28 19 6.54Q19.36 6.80 19.68 7.14Q20 7.48 20.20 7.84Q20.40 8.20 20.40 8.52L20.40 8.52Z M33.76 27L33.76 27Q33.24 27.36 32.08 27.70Q30.92 28.04 29.68 28.28L29.68 28.28L28.04 27.96Q27.68 27.84 26.86 27.40Q26.04 26.96 25.20 26.06Q24.36 25.16 23.72 23.74Q23.08 22.32 23.08 20.28L23.08 20.28Q23.08 19.56 23.42 18.58Q23.76 17.60 24.44 16.74Q25.12 15.88 26.14 15.28Q27.16 14.68 28.52 14.68L28.52 14.68Q31.24 14.68 33.44 16.44L33.44 16.44Q35.36 19.08 35.36 22.28L35.36 22.28Q35.36 24.64 33.76 27ZM31.80 21.32L31.80 21.32Q31.60 19.76 30.82 18.86Q30.04 17.96 28.84 17.96L28.84 17.96Q28.04 17.96 27.34 18.74Q26.64 19.52 26.64 21L26.64 21Q26.64 21.60 26.80 22.26Q26.96 22.92 27.32 23.46Q27.68 24 28.24 24.34Q28.80 24.68 29.60 24.68L29.60 24.68Q30.88 24.68 31.36 23.90Q31.84 23.12 31.84 21.96L31.84 21.96Q31.84 21.80 31.82 21.66Q31.80 21.52 31.80 21.32Z M54.04 13.64L54.04 13.64Q54.12 14.12 54.12 14.60Q54.12 15.08 54.12 15.52L54.12 15.52Q54.12 17.36 53.72 18.84L53.72 18.84Q53.56 19.84 53.48 20.90Q53.40 21.96 53.32 23.12L53.32 23.12Q53.32 23.20 53.42 23.98Q53.52 24.76 53.52 26.28L53.52 26.28Q53.52 26.96 52.98 27.30Q52.44 27.64 51.72 27.64L51.72 27.64Q50.84 27.64 50.48 27.26Q50.12 26.88 50.04 25.44L50.04 25.44Q49.36 26.08 48.72 26.42Q48.08 26.76 47.50 26.92Q46.92 27.08 46.42 27.12Q45.92 27.16 45.48 27.16L45.48 27.16Q43.20 27.16 42.04 25.80Q40.88 24.44 40.88 22.04L40.88 22.04Q40.88 21.76 40.88 21.46Q40.88 21.16 40.92 20.76L40.92 20.76Q40.88 20.68 40.88 20.40L40.88 20.40Q40.88 19.96 40.90 19.50Q40.92 19.04 41.04 18.36Q41.16 17.68 41.42 16.66Q41.68 15.64 42.16 14.04L42.16 14.04Q42.68 13.40 43.56 13.40L43.56 13.40Q44.24 13.40 44.74 13.76Q45.24 14.12 45.24 14.88L45.24 14.88Q45.24 15.08 45.12 15.68Q45 16.28 44.84 17Q44.68 17.72 44.56 18.44Q44.44 19.16 44.44 19.56L44.44 19.56L44.44 19.76Q44.36 20.20 44.32 20.62Q44.28 21.04 44.28 21.40L44.28 21.40Q44.28 22.44 44.58 23.12Q44.88 23.80 45.88 23.80L45.88 23.80Q46.60 23.80 47.24 23.46Q47.88 23.12 48.42 22.62Q48.96 22.12 49.36 21.54Q49.76 20.96 49.96 20.44L49.96 20.44Q50.16 18.96 50.68 16.56L50.68 16.56L50.68 16.16Q50.68 15.48 50.74 14.84Q50.80 14.20 50.98 13.70Q51.16 13.20 51.52 12.90Q51.88 12.60 52.52 12.60L52.52 12.60Q53.72 12.60 54.04 13.64Z M76.20 26.56L76.20 26.56Q76.20 27.28 75.56 27.90Q74.92 28.52 74.28 28.52L74.28 28.52Q73.96 28.52 73.76 28.32L73.76 28.32Q73.72 28.32 73.40 27.92Q73.08 27.52 72.64 26.92Q72.20 26.32 71.68 25.64Q71.16 24.96 70.72 24.36Q70.28 23.76 70.02 23.38Q69.76 23 69.80 23.04L69.80 23.04Q69.72 22.80 69.40 22.28Q69.08 21.76 68.70 21.18Q68.32 20.60 68 20.10Q67.68 19.60 67.64 19.48L67.64 19.48Q67.56 19.48 67.20 19.54Q66.84 19.60 66.40 19.66Q65.96 19.72 65.50 19.78Q65.04 19.84 64.80 19.84L64.80 19.84L64.60 19.84Q64.48 21.08 64.40 21.88Q64.32 22.68 64.32 23.08L64.32 23.08L64.32 24.32Q64.32 26.48 63.96 29L63.96 29Q63.48 29.72 62.56 29.72L62.56 29.72Q61.76 29.72 61.18 29.30Q60.60 28.88 60.60 27.84L60.60 27.84Q60.60 27.52 60.62 27.06Q60.64 26.60 60.66 26.12Q60.68 25.64 60.70 25.26Q60.72 24.88 60.72 24.76L60.72 24.76L60.72 24.56L61.00 18.52Q61.04 18 61.02 17.24Q61.00 16.48 61.08 15.48L61.08 15.48L61.40 13.08Q61.64 11.84 61.64 10.96L61.64 10.96Q61.64 10.68 61.62 10.42Q61.60 10.16 61.56 9.88L61.56 9.88Q61.56 9.88 61.68 8.48L61.68 8.48Q61.72 7.52 62.04 6.92Q62.36 6.32 63.56 6.32L63.56 6.32Q64.40 6.32 65.24 6.60L65.24 6.60Q66.04 6.52 66.66 6.52Q67.28 6.52 67.72 6.52L67.72 6.52Q68.12 6.52 68.44 6.54Q68.76 6.56 69.08 6.62Q69.40 6.68 69.80 6.78Q70.20 6.88 70.76 7.04L70.76 7.04L72.52 8.24Q74 9.40 74.50 10.56Q75 11.72 75 13L75 13Q75 13.88 74.94 14.50Q74.88 15.12 74.52 15.72Q74.16 16.32 73.40 16.96Q72.64 17.60 71.24 18.56L71.24 18.56Q72.16 19.72 73.32 22L73.32 22Q74.04 22.56 76.20 26.56ZM71.28 13.80L71.28 13.80Q71.32 13.64 71.32 13.36L71.32 13.36Q71.32 12.96 71.24 12.54Q71.16 12.12 70.88 11.70Q70.60 11.28 70.06 10.86Q69.52 10.44 68.56 10.04L68.56 10.04Q67.72 9.72 67.16 9.72L67.16 9.72Q67 9.76 66.72 9.80L66.72 9.80Q66.48 9.88 66.12 9.94Q65.76 10 65.32 10.08L65.32 10.08Q65.36 10.32 65.36 10.54Q65.36 10.76 65.30 11.36Q65.24 11.96 65.12 13.08Q65 14.20 64.84 16.20L64.84 16.20Q65 16.24 65.16 16.24Q65.32 16.24 65.48 16.24L65.48 16.24Q66.24 16.24 67.18 16.02Q68.12 15.80 68.96 15.46Q69.80 15.12 70.44 14.68Q71.08 14.24 71.28 13.80Z M19.44 50.60L19.44 50.60Q19.32 51.08 18.86 51.76Q18.40 52.44 17.72 53.14Q17.04 53.84 16.26 54.40Q15.48 54.96 14.76 55.20L14.76 55.20Q12.68 56.12 10.08 56.12L10.08 56.12Q9.24 56.12 8.62 56.08Q8 56.04 7.40 55.84Q6.80 55.64 6.20 55.20Q5.60 54.76 4.84 53.92L4.84 53.92Q4 53.04 3.52 52.18Q3.04 51.32 2.80 50.52Q2.56 49.72 2.48 48.98Q2.40 48.24 2.40 47.64L2.40 47.64Q2.40 46.32 2.72 44.52Q3.04 42.72 4.44 40.12L4.44 40.12Q4.96 39.16 5.24 38.60Q5.52 38.04 5.56 37.84L5.56 37.84L8.04 36.32Q9.32 35.56 10.48 35.10Q11.64 34.64 13.04 34.64L13.04 34.64Q13.44 34.64 14.24 34.64Q15.04 34.64 15.82 34.82Q16.60 35 17.20 35.46Q17.80 35.92 17.80 36.80L17.80 36.80Q17.80 38.28 16.04 38.52L16.04 38.52Q16.08 38.52 15.80 38.48Q15.52 38.44 15.04 38.40Q14.56 38.36 13.96 38.32Q13.36 38.28 12.76 38.28L12.76 38.28Q11.72 38.28 10.66 38.86Q9.60 39.44 8.08 40.84L8.08 40.84Q7.28 42.52 6.90 43.46Q6.52 44.40 6.52 44.72L6.52 44.72Q6.08 45.52 6.08 47.08L6.08 47.08Q6.08 49.96 7.12 51.22Q8.16 52.48 9.96 52.48L9.96 52.48Q11.12 52.48 13.56 51.84L13.56 51.84Q15.04 50.96 16.12 49.04L16.12 49.04Q16.80 48.36 17.52 48.36L17.52 48.36Q18.28 48.36 18.88 48.96Q19.48 49.56 19.48 50.32L19.48 50.32Q19.48 50.40 19.46 50.46Q19.44 50.52 19.44 50.60Z M34.84 55L34.84 55Q34.32 55.36 33.16 55.70Q32 56.04 30.76 56.28L30.76 56.28L29.12 55.96Q28.76 55.84 27.94 55.40Q27.12 54.96 26.28 54.06Q25.44 53.16 24.80 51.74Q24.16 50.32 24.16 48.28L24.16 48.28Q24.16 47.56 24.50 46.58Q24.84 45.60 25.52 44.74Q26.20 43.88 27.22 43.28Q28.24 42.68 29.60 42.68L29.60 42.68Q32.32 42.68 34.52 44.44L34.52 44.44Q36.44 47.08 36.44 50.28L36.44 50.28Q36.44 52.64 34.84 55ZM32.88 49.32L32.88 49.32Q32.68 47.76 31.90 46.86Q31.12 45.96 29.92 45.96L29.92 45.96Q29.12 45.96 28.42 46.74Q27.72 47.52 27.72 49L27.72 49Q27.72 49.60 27.88 50.26Q28.04 50.92 28.40 51.46Q28.76 52 29.32 52.34Q29.88 52.68 30.68 52.68L30.68 52.68Q31.96 52.68 32.44 51.90Q32.92 51.12 32.92 49.96L32.92 49.96Q32.92 49.80 32.90 49.66Q32.88 49.52 32.88 49.32Z M47.68 34.96L47.68 34.96Q47.60 35.96 47.22 37.22Q46.84 38.48 46.68 39.28L46.68 39.28L46.68 39.76Q46.68 40.32 46.60 40.96Q46.52 41.60 46.44 42.18Q46.36 42.76 46.26 43.20Q46.16 43.64 46.16 43.80L46.16 43.80Q46.12 44 46.12 44.76Q46.12 45.52 46.12 46.80L46.12 46.80L46.12 47.28Q46.12 48.08 46.04 48.68Q45.96 49.28 45.84 49.76L45.84 49.76L46.20 52.76Q46.36 53.20 47.28 54.08L47.28 54.08Q47.08 54.80 46.24 55.38Q45.40 55.96 44.52 55.96L44.52 55.96Q43.32 55.96 42.70 54.82Q42.08 53.68 42.08 51L42.08 51Q42.08 50.56 42.14 50.24Q42.20 49.92 42.20 49.44L42.20 49.44Q42.20 48.48 41.96 47.04L41.96 47.04Q42.16 46.60 42.26 45.92Q42.36 45.24 42.40 44.62Q42.44 44 42.44 43.56Q42.44 43.12 42.44 43.20L42.44 43.20Q42.44 43.24 42.54 42.64Q42.64 42.04 42.76 41.22Q42.88 40.40 42.98 39.52Q43.08 38.64 43.08 38.12L43.08 38.12L43.08 37.80L43.76 34.44Q44.28 33.56 45.56 33.56L45.56 33.56Q46.96 33.56 47.68 34.96Z M59.76 34.96L59.76 34.96Q59.68 35.96 59.30 37.22Q58.92 38.48 58.76 39.28L58.76 39.28L58.76 39.76Q58.76 40.32 58.68 40.96Q58.60 41.60 58.52 42.18Q58.44 42.76 58.34 43.20Q58.24 43.64 58.24 43.80L58.24 43.80Q58.20 44 58.20 44.76Q58.20 45.52 58.20 46.80L58.20 46.80L58.20 47.28Q58.20 48.08 58.12 48.68Q58.04 49.28 57.92 49.76L57.92 49.76L58.28 52.76Q58.44 53.20 59.36 54.08L59.36 54.08Q59.16 54.80 58.32 55.38Q57.48 55.96 56.60 55.96L56.60 55.96Q55.40 55.96 54.78 54.82Q54.16 53.68 54.16 51L54.16 51Q54.16 50.56 54.22 50.24Q54.28 49.92 54.28 49.44L54.28 49.44Q54.28 48.48 54.04 47.04L54.04 47.04Q54.24 46.60 54.34 45.92Q54.44 45.24 54.48 44.62Q54.52 44 54.52 43.56Q54.52 43.12 54.52 43.20L54.52 43.20Q54.52 43.24 54.62 42.64Q54.72 42.04 54.84 41.22Q54.96 40.40 55.06 39.52Q55.16 38.64 55.16 38.12L55.16 38.12L55.16 37.80L55.84 34.44Q56.36 33.56 57.64 33.56L57.64 33.56Q59.04 33.56 59.76 34.96Z M79.52 54.40L79.52 54.40Q78.24 55.68 76.64 56.58Q75.04 57.48 73.40 57.48L73.40 57.48Q71.92 57.48 69.60 57L69.60 57Q68.80 56.48 68 55.74Q67.20 55 66.56 54.10Q65.92 53.20 65.52 52.14Q65.12 51.08 65.12 49.96L65.12 49.96Q65.12 49.64 65.16 49.10Q65.20 48.56 65.26 48.02Q65.32 47.48 65.36 47.08Q65.40 46.68 65.40 46.68L65.40 46.68Q66.20 45.40 67.10 44.14Q68 42.88 69.64 41.92L69.64 41.92Q72.24 41.36 73.40 41.36L73.40 41.36Q74 41.36 74.44 41.42Q74.88 41.48 75.30 41.66Q75.72 41.84 76.14 42.20Q76.56 42.56 77.12 43.12L77.12 43.12Q77.76 43.80 78.14 44.04Q78.52 44.28 78.52 44.48L78.52 44.48Q78.52 48.16 76.24 49.48L76.24 49.48Q75.24 49.84 73.64 50.26Q72.04 50.68 69.28 51.04L69.28 51.04Q69.84 52.56 70.76 53.32Q71.68 54.08 72.84 54.08L72.84 54.08Q74.56 54.08 77.16 52.04L77.16 52.04Q77.56 51.68 78.16 51.68L78.16 51.68Q78.80 51.68 79.30 52.16Q79.80 52.64 79.80 53.36L79.80 53.36Q79.80 53.88 79.52 54.40ZM75 45.84L75 45.84Q74.24 44.60 73.20 44.60L73.20 44.60Q72.76 44.60 72.24 44.72Q71.72 44.84 71.18 45.06Q70.64 45.28 70.18 45.60Q69.72 45.92 69.44 46.36L69.44 46.36L69.04 47.56Q70.40 47.44 71.44 47.36Q72.48 47.28 73.24 47.12Q74 46.96 74.44 46.68Q74.88 46.40 75 45.84Z M97.56 52.16L97.56 52.16Q96.80 53.76 95.08 54.70Q93.36 55.64 91.24 55.64L91.24 55.64Q90.96 55.64 90.32 55.56Q89.68 55.48 88.90 55.24Q88.12 55 87.30 54.58Q86.48 54.16 85.80 53.46Q85.12 52.76 84.68 51.76Q84.24 50.76 84.24 49.40L84.24 49.40Q84.20 47.60 84.74 46.12Q85.28 44.64 86.48 43.12L86.48 43.12L87.76 41.48Q90.00 39.96 92.80 39.96L92.80 39.96Q94.32 39.96 95.22 40.52Q96.12 41.08 96.12 42.12L96.12 42.12Q96.12 42.92 95.54 43.42Q94.96 43.92 94.04 43.92L94.04 43.92Q94 43.92 93.74 43.86Q93.48 43.80 93.16 43.72Q92.84 43.64 92.52 43.58Q92.20 43.52 92 43.52L92 43.52Q91.08 43.52 89.90 44.48Q88.72 45.44 88.04 47.52L88.04 47.52Q87.76 48.40 87.76 48.96L87.76 48.96Q87.76 50.08 88.38 50.72Q89.00 51.36 89.76 51.70Q90.52 52.04 91.16 52.14Q91.80 52.24 91.84 52.24L91.84 52.24Q92.40 52.24 92.96 51.92Q93.52 51.60 93.98 51.20Q94.44 50.80 94.72 50.50Q95 50.20 94.96 50.20L94.96 50.20Q95.36 49.84 95.88 49.84L95.88 49.84Q96.52 49.84 97.06 50.50Q97.60 51.16 97.60 51.84L97.60 51.84Q97.60 52.04 97.56 52.16Z M117.00 39.36L117.00 39.36Q116.44 39.60 115.76 39.60L115.76 39.60Q115.56 39.60 115.18 39.56Q114.80 39.52 114.36 39.46Q113.92 39.40 113.50 39.34Q113.08 39.28 112.88 39.28L112.88 39.28Q111.60 39.28 110.40 39.64L110.40 39.64Q110.64 41.16 110.80 42.60Q110.96 44.04 111.08 45.30Q111.20 46.56 111.24 47.58Q111.28 48.60 111.28 49.32L111.28 49.32Q111.28 51.12 111.26 52.42Q111.24 53.72 111.04 54.58Q110.84 55.44 110.40 55.84Q109.96 56.24 109.12 56.24L109.12 56.24Q108.32 56.24 107.94 55.82Q107.56 55.40 107.42 54.82Q107.28 54.24 107.30 53.60Q107.32 52.96 107.32 52.52L107.32 52.52Q107.32 51.76 107.44 51.14Q107.56 50.52 107.56 49.96L107.56 49.96Q107.56 49.68 107.40 47.94Q107.24 46.20 107.24 43.56L107.24 43.56Q107.24 42.68 107.06 41.82Q106.88 40.96 106.68 40.16L106.68 40.16L104.32 40.32Q102.88 40.44 102.32 40.76L102.32 40.76Q101.48 40.76 100.88 40.28Q100.28 39.80 100.28 39.04L100.28 39.04Q100.28 38.28 100.96 37.36L100.96 37.36Q101.16 37.32 102.76 37.06Q104.36 36.80 107.36 36.24L107.36 36.24L109.36 36Q110.32 35.88 111.20 35.88L111.20 35.88L111.80 35.88L116.52 36.20Q117.36 36.68 117.36 38L117.36 38Q117.36 38.72 117.00 39.36Z M127.76 37.16L127.76 37.16Q127.84 37.48 127.84 37.76L127.84 37.76Q127.84 39.04 127.08 39.92L127.08 39.92Q125.88 40.40 124.68 40.40L124.68 40.40Q123.92 39.92 123.42 39.30Q122.92 38.68 122.92 38.08L122.92 38.08Q122.92 37.56 124.12 35.52L124.12 35.52Q124.64 35.60 125.22 35.64Q125.80 35.68 126.30 35.84Q126.80 36 127.18 36.30Q127.56 36.60 127.76 37.16ZM126.48 43.84L126.48 43.84L126.48 44.36Q126.48 44.56 126.48 44.80Q126.48 45.04 126.40 45.24L126.40 45.24L126.08 47.04L126.08 47.40Q126.08 47.64 126.04 48.04Q126 48.44 125.94 48.84Q125.88 49.24 125.84 49.60Q125.80 49.96 125.80 50.20L125.80 50.20Q125.80 50.40 125.82 50.52Q125.84 50.64 125.84 50.84L125.84 50.84Q125.84 51.20 125.76 51.62Q125.68 52.04 125.68 52.56L125.68 52.56Q125.68 53.04 125.80 53.56L125.80 53.56Q125.36 55.36 123.96 55.36L123.96 55.36Q122 55.36 122 51.68L122 51.68Q122 50.44 122.12 49.22Q122.24 48 122.40 46.96Q122.56 45.92 122.74 45.14Q122.92 44.36 123.04 43.92L123.04 43.92Q123.64 43.04 124.72 43.04L124.72 43.04Q125.76 43.04 126.48 43.84Z M143.92 55L143.92 55Q143.40 55.36 142.24 55.70Q141.08 56.04 139.84 56.28L139.84 56.28L138.20 55.96Q137.84 55.84 137.02 55.40Q136.20 54.96 135.36 54.06Q134.52 53.16 133.88 51.74Q133.24 50.32 133.24 48.28L133.24 48.28Q133.24 47.56 133.58 46.58Q133.92 45.60 134.60 44.74Q135.28 43.88 136.30 43.28Q137.32 42.68 138.68 42.68L138.68 42.68Q141.40 42.68 143.60 44.44L143.60 44.44Q145.52 47.08 145.52 50.28L145.52 50.28Q145.52 52.64 143.92 55ZM141.96 49.32L141.96 49.32Q141.76 47.76 140.98 46.86Q140.20 45.96 139.00 45.96L139.00 45.96Q138.20 45.96 137.50 46.74Q136.80 47.52 136.80 49L136.80 49Q136.80 49.60 136.96 50.26Q137.12 50.92 137.48 51.46Q137.84 52 138.40 52.34Q138.96 52.68 139.76 52.68L139.76 52.68Q141.04 52.68 141.52 51.90Q142.00 51.12 142.00 49.96L142.00 49.96Q142.00 49.80 141.98 49.66Q141.96 49.52 141.96 49.32Z M168.36 42L168.48 47.04L168.48 48.08Q168.48 49.64 168.36 51.12L168.36 51.12L168.36 51.68Q168.36 52.12 168.28 52.66Q168.20 53.20 168.02 53.70Q167.84 54.20 167.50 54.54Q167.16 54.88 166.68 54.88L166.68 54.88Q165.56 54.88 164.80 54.12L164.80 54.12Q164.80 53.44 161.92 49.96L161.92 49.96Q161.72 49.48 161.22 48.70Q160.72 47.92 159.96 46.84L159.96 46.84Q159.76 46.68 159.34 46.08Q158.92 45.48 158.50 44.82Q158.08 44.16 157.78 43.64Q157.48 43.12 157.52 43.16L157.52 43.16Q157.20 42.84 156.76 42.26Q156.32 41.68 155.68 40.80L155.68 40.80Q155.68 42.92 155.48 43.24L155.48 43.24Q155.44 43.68 155.38 44.38Q155.32 45.08 155.26 45.82Q155.20 46.56 155.16 47.26Q155.12 47.96 155.08 48.36L155.08 48.36L155.08 48.52Q155.08 48.84 154.94 49.50Q154.80 50.16 154.62 50.84Q154.44 51.52 154.28 52.08Q154.12 52.64 154.12 52.72L154.12 52.72Q153.52 54.04 152.24 54.04L152.24 54.04Q150.96 54.04 150.64 52.40L150.64 52.40Q150.92 50.80 151.48 47.12L151.48 47.12Q151.52 46.40 151.62 45.24Q151.72 44.08 151.92 42.40L151.92 42.40Q152.00 42 152.08 41.08Q152.16 40.16 152.26 39.14Q152.36 38.12 152.48 37.20Q152.60 36.28 152.72 35.88L152.72 35.88Q153.60 34.76 155.16 34.76L155.16 34.76Q155.36 34.84 155.70 35.20Q156.04 35.56 156.44 36.06Q156.84 36.56 157.28 37.14Q157.72 37.72 158.08 38.32L158.08 38.32Q158.52 38.84 159.26 39.78Q160.00 40.72 160.94 41.94Q161.88 43.16 162.90 44.60Q163.92 46.04 164.88 47.60L164.88 47.60L164.88 46.52Q164.88 45.04 164.76 44.36L164.76 44.36Q164.84 44.12 164.84 43.84L164.84 43.84Q164.84 43.76 164.78 43.34Q164.72 42.92 164.66 42.38Q164.60 41.84 164.54 41.32Q164.48 40.80 164.48 40.52L164.48 40.52Q164.48 40.44 164.50 40.38Q164.52 40.32 164.52 40.24L164.52 40.24Q164.40 38.48 164.28 37.30Q164.16 36.12 164.00 35.48L164.00 35.48Q164.44 33.48 165.76 33.48L165.76 33.48Q167.08 33.48 167.68 34.80L167.68 34.80Q167.76 36.20 167.92 38Q168.08 39.80 168.36 42L168.36 42Z"/></g>
</svg>
</g><g opacity="1" transform="rotate(0 75.6327 94.5614)">
<svg width="11.0477" height="140" x="75.6327" y="94.5614" version="1.1" preserveAspectRatio="none" viewBox="6.48 -25.44 2.3200000000000003 29.4">
  <g transform="matrix(1 0 0 1 0 0)" class="icon3"><path id="id-lXek8z7fT1" d="M8.68-12.24L8.68-12.24Q8.68-12 8.74-11Q8.80-10 8.80-8.16L8.80-8.16Q8.80-6.80 8.60-6.32L8.60-6.32Q8.68-5.96 8.68-5.58Q8.68-5.20 8.68-4.76L8.68-4.76Q8.68-3.84 8.58-2.86Q8.48-1.88 8.44-0.96L8.44-0.96Q8.48-0.48 8.48-0.02Q8.48 0.44 8.48 0.88L8.48 0.88Q8.48 1.36 8.48 1.90Q8.48 2.44 8.42 2.90Q8.36 3.36 8.18 3.66Q8 3.96 7.64 3.96L7.64 3.96Q7 3.96 6.84 3.72L6.84 3.72Q6.48 2.24 6.48-0.04L6.48-0.04Q6.48-1.40 6.66-3.12Q6.84-4.84 6.84-6.56L6.84-6.56Q6.84-8.08 6.60-9.52L6.60-9.52Q6.60-9.60 6.64-10.30Q6.68-11 6.72-11.88Q6.76-12.76 6.84-13.54Q6.92-14.32 7.04-14.56L7.04-14.56Q6.84-15.36 6.84-17.48L6.84-17.48Q6.84-18.12 6.84-18.82Q6.84-19.52 6.86-20.40Q6.88-21.28 6.98-22.42Q7.08-23.56 7.28-25.16L7.28-25.16Q7.32-25.44 7.84-25.44L7.84-25.44Q8.60-25.44 8.70-25.04Q8.80-24.64 8.80-23.72L8.80-23.72Q8.80-23.12 8.76-22.32Q8.72-21.52 8.64-20.48L8.64-20.48Q8.68-19.20 8.68-17.14Q8.68-15.08 8.68-12.24Z"/></g>
</svg>
</g></svg></svg>